<?xml version="1.0" standalone="no"?>
<!DOCTYPE svg PUBLIC "-//W3C//DTD SVG 20010904//EN"
 "http://www.w3.org/TR/2001/REC-SVG-20010904/DTD/svg10.dtd">
<svg version="1.0" xmlns="http://www.w3.org/2000/svg"
 width="770.000000pt" height="400.000000pt" viewBox="0 0 770.000000 400.000000"
 preserveAspectRatio="xMidYMid meet">

<g transform="translate(0.000000,400.000000) scale(0.100000,-0.100000)"
fill="#b40300" stroke="none">
<path d="M3925 2856 c-1419 -381 -2713 -728 -2875 -771 -265 -71 -298 -82
-327 -110 -18 -18 -34 -46 -37 -66 -5 -26 35 -188 162 -662 182 -677 179 -666
252 -688 33 -10 271 52 2916 761 1583 425 2886 776 2894 780 28 15 58 55 64
86 5 24 -34 185 -159 655 -92 343 -173 634 -181 646 -20 31 -56 53 -95 58 -24
3 -836 -211 -2614 -689z m2650 614 c21 -23 348 -1230 343 -1268 -2 -14 -14
-33 -28 -43 -26 -19 -5720 -1549 -5763 -1549 -13 0 -32 9 -42 20 -21 23 -348
1230 -343 1268 2 14 14 33 28 43 27 20 5705 1547 5756 1548 19 1 38 -7 49 -19z"/>
<path d="M6205 3266 c-179 -35 -355 -92 -355 -116 0 -38 153 -592 220 -795 27
-82 57 -176 66 -207 8 -32 21 -58 27 -58 7 0 107 29 222 65 194 60 213 68 244
103 56 62 80 145 46 158 -10 4 -15 21 -15 53 -1 67 -92 396 -109 396 -8 0 -16
6 -19 14 -3 10 0 12 12 8 20 -8 20 -14 -8 116 -25 114 -68 197 -127 245 -37
30 -109 36 -204 18z m44 -177 c28 -43 49 -109 119 -372 l86 -320 -39 -34 c-21
-18 -44 -33 -50 -33 -27 0 -46 47 -108 275 -36 132 -80 281 -98 330 -35 96
-35 115 1 173 28 45 50 41 89 -19z m331 -675 c0 -8 -4 -12 -10 -9 -5 3 -10 10
-10 16 0 5 5 9 10 9 6 0 10 -7 10 -16z"/>
<path d="M6176 3105 c4 -8 10 -12 15 -9 14 8 10 24 -6 24 -9 0 -12 -6 -9 -15z"/>
<path d="M5590 3094 c-58 -13 -156 -35 -217 -50 l-113 -26 0 -36 c0 -50 184
-735 195 -725 4 4 5 3 2 -4 -4 -6 -2 -34 5 -62 8 -38 16 -51 30 -51 17 0 17
-2 1 -36 -14 -28 -15 -37 -5 -43 7 -4 13 -16 12 -27 0 -10 -2 -37 -3 -59 -2
-39 -1 -40 34 -43 29 -2 404 88 431 104 3 2 3 19 -2 37 -5 17 -14 51 -20 75
-6 23 -16 42 -22 42 -6 0 -28 -16 -50 -36 -31 -28 -45 -34 -66 -30 -15 3 -38
0 -51 -7 -22 -11 -28 -9 -53 15 -18 17 -28 36 -28 55 0 15 -9 65 -20 111 -28
115 -26 136 9 161 17 12 45 21 66 21 20 0 56 5 81 11 33 9 44 16 44 31 0 34
-31 143 -43 150 -14 9 -47 -9 -47 -25 0 -7 -15 -18 -33 -25 -18 -6 -48 -27
-67 -44 l-33 -33 7 29 c6 24 3 33 -19 50 -20 16 -32 46 -56 133 l-30 111 48
45 c42 40 50 44 71 34 18 -9 31 -7 58 8 33 17 34 20 34 76 0 69 -7 89 -29 88
-9 -1 -63 -12 -121 -25z m-120 -259 c0 -8 -4 -15 -10 -15 -5 0 -10 7 -10 15 0
8 5 15 10 15 6 0 10 -7 10 -15z m-24 -32 c-7 -7 -26 7 -26 19 0 6 6 6 15 -2 9
-7 13 -15 11 -17z m234 -272 c0 -22 -15 -35 -30 -26 -7 4 -7 13 0 26 14 25 30
25 30 0z m-170 -11 c0 -5 -4 -10 -10 -10 -5 0 -10 5 -10 10 0 6 5 10 10 10 6
0 10 -4 10 -10z m10 -34 c0 -3 -4 -8 -10 -11 -5 -3 -10 -1 -10 4 0 6 5 11 10
11 6 0 10 -2 10 -4z m40 -37 c0 -5 -4 -9 -10 -9 -5 0 -10 7 -10 16 0 8 5 12
10 9 6 -3 10 -10 10 -16z m-23 -131 c-3 -8 -6 -5 -6 6 -1 11 2 17 5 13 3 -3 4
-12 1 -19z m-22 -109 c4 -6 13 -8 21 -5 10 4 14 -4 14 -30 0 -21 -4 -33 -10
-29 -5 3 -10 15 -10 27 0 11 -8 22 -20 25 -11 3 -20 9 -20 14 0 12 17 11 25
-2z m133 -92 l22 -23 -40 -35 c-29 -26 -43 -33 -55 -26 -14 7 -13 12 9 32 15
14 26 35 26 50 0 31 10 32 38 2z m-98 -53 c0 -8 -4 -12 -10 -9 -5 3 -10 10
-10 16 0 5 5 9 10 9 6 0 10 -7 10 -16z"/>
<path d="M4960 2915 c-30 -12 -59 -30 -64 -38 -7 -11 -6 -49 3 -114 17 -130
43 -381 43 -416 1 -16 -4 -33 -10 -39 -12 -12 -48 53 -123 225 -27 60 -52 114
-57 120 -5 7 -21 44 -36 82 -15 39 -32 75 -37 81 -10 13 -200 -33 -220 -53
-13 -13 31 -104 66 -135 15 -13 25 -32 25 -48 0 -15 10 -36 24 -49 15 -14 22
-29 19 -45 -5 -23 40 -126 55 -126 4 0 13 9 20 20 23 37 31 20 11 -24 -19 -44
-19 -45 1 -95 11 -28 37 -85 58 -128 22 -43 63 -133 91 -201 28 -68 61 -138
73 -156 l22 -34 66 18 c36 10 102 28 148 40 l82 22 0 42 c0 41 -25 269 -35
316 -5 26 -49 511 -60 668 l-7 92 -52 -1 c-29 0 -75 -11 -106 -24z m140 -160
c0 -8 -4 -15 -10 -15 -5 0 -10 7 -10 15 0 8 5 15 10 15 6 0 10 -7 10 -15z
m-480 -70 c0 -8 -4 -15 -10 -15 -5 0 -10 7 -10 15 0 8 5 15 10 15 6 0 10 -7
10 -15z m440 -5 c0 -5 -4 -10 -10 -10 -5 0 -10 5 -10 10 0 6 5 10 10 10 6 0
10 -4 10 -10z m-390 -76 c0 -8 -4 -12 -10 -9 -5 3 -10 10 -10 16 0 5 5 9 10 9
6 0 10 -7 10 -16z m-20 -46 c25 -27 25 -37 0 -35 -11 1 -20 8 -20 17 0 9 -5
21 -12 28 -9 9 -9 12 0 12 6 0 20 -10 32 -22z m60 3 c0 -6 -4 -13 -10 -16 -5
-3 -10 1 -10 9 0 9 5 16 10 16 6 0 10 -4 10 -9z m-7 -68 c5 -27 2 -41 -7 -32
-11 10 -17 59 -8 59 5 0 12 -12 15 -27z m117 -24 c0 -5 -4 -9 -10 -9 -5 0 -10
7 -10 16 0 8 5 12 10 9 6 -3 10 -10 10 -16z m-140 1 c0 -5 -4 -10 -10 -10 -5
0 -10 5 -10 10 0 6 5 10 10 10 6 0 10 -4 10 -10z m21 -43 c-1 -12 -15 -9 -19
4 -3 6 1 10 8 8 6 -3 11 -8 11 -12z m119 -77 c0 -5 -4 -10 -10 -10 -5 0 -10 5
-10 10 0 6 5 10 10 10 6 0 10 -4 10 -10z m-40 -31 c0 -5 -4 -9 -10 -9 -5 0
-10 7 -10 16 0 8 5 12 10 9 6 -3 10 -10 10 -16z m250 -5 c0 -8 -4 -12 -10 -9
-5 3 -10 10 -10 16 0 5 5 9 10 9 6 0 10 -7 10 -16z m-190 -84 c0 -5 -4 -10 -9
-10 -6 0 -13 5 -16 10 -3 6 1 10 9 10 9 0 16 -4 16 -10z m97 -62 c-3 -7 -5 -2
-5 12 0 14 2 19 5 13 2 -7 2 -19 0 -25z m-87 2 c0 -5 -4 -10 -10 -10 -5 0 -10
5 -10 10 0 6 5 10 10 10 6 0 10 -4 10 -10z m42 -22 c-9 -9 -12 -7 -12 12 0 19
3 21 12 12 9 -9 9 -15 0 -24z"/>
<path d="M4080 2719 c-19 -5 -68 -22 -109 -37 -65 -24 -80 -34 -118 -82 -42
-54 -43 -57 -43 -130 0 -46 4 -70 9 -61 7 10 10 10 16 1 4 -7 2 -15 -4 -19
-18 -12 121 -593 148 -620 12 -12 25 -21 30 -21 5 0 7 -8 4 -19 -3 -13 2 -20
19 -25 l23 -6 -24 -20 c-30 -25 -23 -56 21 -90 30 -24 39 -25 158 -25 l126 0
88 43 c73 37 91 51 116 90 39 62 39 114 0 257 -16 61 -30 123 -30 139 0 16
-30 142 -67 280 -74 278 -80 290 -168 332 -54 25 -129 30 -195 13z m90 -237
c27 -83 49 -132 58 -132 7 0 10 -5 7 -11 -4 -6 -4 -30 0 -54 4 -33 10 -43 21
-38 9 3 14 -1 14 -12 0 -10 -5 -13 -12 -9 -8 5 -9 0 -4 -17 27 -98 38 -145 51
-224 8 -49 22 -112 30 -139 8 -27 15 -53 15 -57 0 -5 -23 -20 -51 -35 -90 -45
-96 -36 -155 260 -13 65 -31 144 -40 175 -9 31 -26 108 -39 171 l-23 115 24
26 c21 22 28 44 33 107 3 40 31 -10 71 -126z m140 13 c0 -8 -4 -15 -10 -15 -5
0 -10 7 -10 15 0 8 5 15 10 15 6 0 10 -7 10 -15z m30 0 c0 -8 -2 -15 -4 -15
-2 0 -6 7 -10 15 -3 8 -1 15 4 15 6 0 10 -7 10 -15z m-30 -70 c0 -8 -4 -15
-10 -15 -5 0 -10 7 -10 15 0 8 5 15 10 15 6 0 10 -7 10 -15z m-33 -67 c-3 -8
-6 -5 -6 6 -1 11 2 17 5 13 3 -3 4 -12 1 -19z m-319 -20 c9 -9 7 -14 -6 -24
-16 -13 -15 -14 5 -20 21 -6 23 -15 14 -52 -1 -2 -16 9 -35 23 -20 15 -33 33
-30 41 2 8 6 21 9 29 5 18 26 20 43 3z m382 -25 c-1 -5 -7 -19 -15 -33 -10
-18 -14 -20 -15 -8 0 23 11 48 21 48 5 0 9 -3 9 -7z m70 0 c0 -5 -4 -14 -9
-21 -7 -11 -9 -11 -14 1 -3 8 -3 18 0 21 9 8 23 7 23 -1z m-43 -29 c-9 -9 -28
6 -21 18 4 6 10 6 17 -1 6 -6 8 -13 4 -17z m49 -81 c-11 -11 -19 6 -11 24 8
17 8 17 12 0 3 -10 2 -21 -1 -24z m-126 -9 c0 -8 -4 -12 -10 -9 -5 3 -10 10
-10 16 0 5 5 9 10 9 6 0 10 -7 10 -16z m59 -65 c-33 -24 -36 -16 -8 19 18 21
25 25 28 14 2 -9 -7 -23 -20 -33z m-19 -49 c0 -5 7 -10 15 -10 9 0 12 -6 9
-15 -4 -8 -10 -15 -15 -15 -5 0 -9 7 -9 15 0 8 -4 15 -10 15 -5 0 -10 5 -10
10 0 6 5 10 10 10 6 0 10 -4 10 -10z m100 -36 c0 -8 -4 -12 -10 -9 -5 3 -10
10 -10 16 0 5 5 9 10 9 6 0 10 -7 10 -16z m-421 -8 c8 -10 9 -16 1 -21 -5 -3
-10 2 -10 12 0 15 -2 16 -10 3 -8 -13 -10 -12 -10 3 0 21 13 22 29 3z m401
-26 c0 -5 -4 -10 -10 -10 -5 0 -10 5 -10 10 0 6 5 10 10 10 6 0 10 -4 10 -10z
m-320 -10 c0 -5 -4 -10 -9 -10 -6 0 -13 5 -16 10 -3 6 1 10 9 10 9 0 16 -4 16
-10z m40 -6 c0 -8 -4 -12 -10 -9 -5 3 -10 10 -10 16 0 5 5 9 10 9 6 0 10 -7
10 -16z m-20 -34 c0 -5 -4 -10 -10 -10 -5 0 -10 5 -10 10 0 6 5 10 10 10 6 0
10 -4 10 -10z m270 -25 c0 -8 8 -15 18 -16 11 0 12 -2 4 -6 -14 -5 -42 14 -42
28 0 5 5 9 10 9 6 0 10 -7 10 -15z m-330 -23 c0 -4 -6 -14 -12 -21 -11 -11 -7
-12 18 -7 22 5 35 2 44 -9 7 -8 10 -18 7 -21 -9 -9 -28 6 -22 17 3 5 -1 6 -9
3 -8 -3 -18 -21 -23 -40 -12 -52 -28 -37 -31 29 -2 46 0 57 12 57 9 0 16 -4
16 -8z m385 -1 c3 -5 1 -12 -5 -16 -5 -3 -10 1 -10 9 0 18 6 21 15 7z m-15
-55 c0 -8 -7 -17 -16 -20 -30 -11 -37 -6 -19 14 21 23 35 26 35 6z m50 -7 c0
-5 -4 -9 -10 -9 -5 0 -10 7 -10 16 0 8 5 12 10 9 6 -3 10 -10 10 -16z m-480
-14 c0 -8 -4 -15 -10 -15 -5 0 -10 7 -10 15 0 8 5 15 10 15 6 0 10 -7 10 -15z
m469 -44 c12 -8 12 -12 2 -25 -16 -19 -31 -12 -31 15 0 21 7 23 29 10z"/>
<path d="M3258 2436 c-103 -28 -194 -58 -202 -66 -14 -14 -12 -26 19 -114 19
-54 41 -109 50 -122 8 -13 15 -36 15 -51 0 -35 119 -465 153 -553 21 -55 28
-65 47 -62 l21 3 -21 -41 c-21 -42 -21 -87 1 -101 14 -8 149 14 177 30 15 8
21 18 18 29 -20 65 -59 222 -77 310 -20 102 -20 106 -3 146 10 22 19 43 21 45
4 5 98 -57 115 -77 9 -9 37 -97 63 -194 38 -143 51 -179 67 -184 28 -8 68 4
68 21 0 17 17 20 22 4 2 -7 18 -7 53 2 28 6 51 13 53 15 2 1 -6 20 -17 41 -11
22 -26 78 -35 124 -8 46 -21 98 -30 114 -9 17 -16 44 -16 60 -1 37 -30 104
-56 126 -10 9 -35 19 -55 23 -59 11 -66 28 -36 89 38 78 42 132 16 227 -35
132 -115 211 -209 209 -19 -1 -119 -24 -222 -53z m259 -81 c9 -25 -4 -29 -17
-6 -7 15 -7 21 0 21 6 0 13 -7 17 -15z m-210 -62 c-21 -22 -32 -11 -15 16 8
13 16 17 22 11 7 -7 4 -16 -7 -27z m176 -119 c24 -86 22 -111 -12 -145 -34
-34 -51 -36 -75 -10 -21 23 -66 182 -66 233 0 32 4 38 38 55 l37 18 31 -45
c17 -25 38 -72 47 -106z m-349 45 c-3 -5 -10 -7 -15 -3 -5 3 -7 10 -3 15 3 5
10 7 15 3 5 -3 7 -10 3 -15z m87 -92 c-1 -12 -15 -9 -19 4 -3 6 1 10 8 8 6 -3
11 -8 11 -12z m-52 -56 c-15 -5 -22 6 -14 19 6 9 10 9 16 -1 5 -8 4 -15 -2
-18z m441 19 c0 -5 -4 -10 -10 -10 -5 0 -10 5 -10 10 0 6 5 10 10 10 6 0 10
-4 10 -10z m-400 -21 c0 -5 -4 -9 -10 -9 -5 0 -10 7 -10 16 0 8 5 12 10 9 6
-3 10 -10 10 -16z m360 -10 c0 -5 -4 -9 -10 -9 -5 0 -10 7 -10 16 0 8 5 12 10
9 6 -3 10 -10 10 -16z m90 -5 c0 -8 -4 -12 -10 -9 -5 3 -10 10 -10 16 0 5 5 9
10 9 6 0 10 -7 10 -16z m-366 -78 c-3 -9 -10 -13 -16 -10 -5 3 -4 12 3 20 15
18 22 13 13 -10z m60 -38 c-4 -6 -13 0 -20 13 -20 36 -16 47 6 20 11 -12 17
-28 14 -33z m187 39 c-1 -12 -15 -9 -19 4 -3 6 1 10 8 8 6 -3 11 -8 11 -12z
m-91 -7 c0 -5 -4 -10 -10 -10 -5 0 -10 5 -10 10 0 6 5 10 10 10 6 0 10 -4 10
-10z m-30 -55 c0 -8 -4 -15 -10 -15 -5 0 -10 7 -10 15 0 8 5 15 10 15 6 0 10
-7 10 -15z m-50 -36 c0 -5 -4 -9 -10 -9 -5 0 -10 7 -10 16 0 8 5 12 10 9 6 -3
10 -10 10 -16z m400 6 c0 -8 -4 -15 -10 -15 -5 0 -10 7 -10 15 0 8 5 15 10 15
6 0 10 -7 10 -15z m-340 -19 c0 -8 -16 -23 -35 -35 -34 -20 -35 -20 -35 -1 0
16 27 36 68 49 1 1 2 -5 2 -13z m310 -206 c0 -5 -4 -10 -10 -10 -5 0 -10 5
-10 10 0 6 5 10 10 10 6 0 10 -4 10 -10z m-350 -35 c0 -8 -4 -15 -10 -15 -5 0
-10 7 -10 15 0 8 5 15 10 15 6 0 10 -7 10 -15z m380 -26 c0 -5 -4 -9 -10 -9
-5 0 -10 7 -10 16 0 8 5 12 10 9 6 -3 10 -10 10 -16z m-351 -31 l-13 -23 -6
25 c-4 18 -2 27 9 31 21 8 25 -5 10 -33z m345 -29 c-3 -5 -10 -7 -15 -3 -5 3
-7 10 -3 15 3 5 10 7 15 3 5 -3 7 -10 3 -15z m-359 -28 c3 -5 1 -12 -5 -16 -5
-3 -10 1 -10 9 0 18 6 21 15 7z m25 -47 c0 -8 -4 -12 -10 -9 -5 3 -10 10 -10
16 0 5 5 9 10 9 6 0 10 -7 10 -16z m-5 -36 c21 -9 35 -28 20 -28 -12 0 -55 24
-55 32 0 11 4 10 35 -4z"/>
<path d="M2625 2321 c-44 -10 -124 -32 -178 -51 -75 -26 -96 -37 -93 -49 3 -9
41 -153 86 -321 44 -168 94 -338 111 -378 16 -40 36 -114 44 -165 16 -110 36
-197 44 -197 21 2 214 59 221 66 5 5 -12 74 -40 159 -52 156 -57 191 -39 244
10 29 12 30 24 14 11 -15 17 -15 51 -5 90 28 174 103 191 170 10 40 -13 219
-31 247 -9 13 -16 39 -16 57 -1 18 -18 67 -38 108 -33 64 -44 78 -83 97 -54
27 -138 29 -254 4z m270 -161 c3 -5 -1 -10 -9 -10 -9 0 -16 5 -16 10 0 6 4 10
9 10 6 0 13 -4 16 -10z m-147 -32 c11 -14 72 -234 72 -261 0 -23 -49 -77 -71
-77 -26 0 -36 23 -79 179 -38 135 -38 136 -18 154 23 20 81 23 96 5z m149 -50
c-3 -7 -5 -2 -5 12 0 14 2 19 5 13 2 -7 2 -19 0 -25z m67 -4 c3 -8 1 -14 -4
-14 -6 0 -10 5 -10 11 0 5 -4 7 -10 4 -5 -3 -10 1 -10 9 0 18 26 11 34 -10z
m-40 -35 c-3 -5 -10 -7 -15 -3 -5 3 -7 10 -3 15 3 5 10 7 15 3 5 -3 7 -10 3
-15z m30 -34 c-4 -8 -13 -15 -22 -15 -13 0 -12 3 4 15 24 18 25 18 18 0z
m-229 -505 c-3 -5 -11 -10 -16 -10 -6 0 -7 5 -4 10 3 6 11 10 16 10 6 0 7 -4
4 -10z m-105 -115 c0 -8 -4 -15 -10 -15 -5 0 -10 7 -10 15 0 8 5 15 10 15 6 0
10 -7 10 -15z m120 -1 c0 -8 -4 -12 -10 -9 -5 3 -10 10 -10 16 0 5 5 9 10 9 6
0 10 -7 10 -16z"/>
<path d="M1960 2141 c-96 -20 -290 -81 -290 -93 0 -22 174 -651 192 -693 11
-27 26 -70 33 -95 6 -25 17 -45 25 -45 7 0 15 -6 18 -14 3 -10 0 -12 -12 -8
-11 4 -16 1 -16 -11 0 -24 36 -192 43 -198 10 -10 219 50 225 65 3 8 -16 80
-43 159 -41 126 -47 153 -42 200 6 52 27 99 27 59 0 -25 36 -21 105 12 63 29
106 71 133 128 14 29 14 46 4 135 -7 56 -19 112 -27 125 -8 12 -15 36 -15 52
0 35 -61 170 -88 194 -27 24 -99 47 -146 46 -22 0 -79 -9 -126 -18z m250 -167
c0 -8 -4 -12 -10 -9 -5 3 -10 10 -10 16 0 5 5 9 10 9 6 0 10 -7 10 -16z m-152
-23 c7 -4 29 -65 48 -135 37 -137 36 -154 -14 -199 -18 -17 -20 -17 -42 1 -16
13 -32 55 -61 161 -21 79 -36 148 -33 153 14 23 78 35 102 19z m159 -53 c-3
-8 -6 -5 -6 6 -1 11 2 17 5 13 3 -3 4 -12 1 -19z m43 1 c0 -5 5 -7 10 -4 6 3
10 -1 10 -10 0 -13 -4 -14 -20 -5 -21 11 -27 30 -10 30 6 0 10 -5 10 -11z
m-20 -39 c0 -5 -4 -10 -10 -10 -5 0 -10 5 -10 10 0 6 5 10 10 10 6 0 10 -4 10
-10z m30 -40 c-10 -19 -30 -28 -30 -14 0 6 30 33 38 34 1 0 -2 -9 -8 -20z
m-230 -500 c0 -5 -5 -10 -11 -10 -5 0 -7 5 -4 10 3 6 8 10 11 10 2 0 4 -4 4
-10z m20 -115 c0 -8 -4 -15 -10 -15 -5 0 -10 7 -10 15 0 8 5 15 10 15 6 0 10
-7 10 -15z"/>
<path d="M1205 1909 c-66 -23 -123 -45 -126 -50 -3 -6 -2 -35 2 -67 4 -31 22
-181 39 -332 17 -151 42 -354 55 -450 14 -96 25 -189 25 -207 0 -66 42 -74
149 -27 l54 24 -6 89 c-8 101 -2 114 58 130 96 26 110 17 156 -93 l24 -59 66
6 c74 6 136 28 145 52 4 9 -22 70 -59 143 -36 70 -77 162 -93 206 -15 43 -44
103 -64 135 -20 31 -52 94 -72 141 -20 47 -71 156 -112 243 -65 134 -79 157
-99 157 -12 0 -76 -19 -142 -41z m165 -80 c0 -5 -4 -9 -10 -9 -5 0 -10 7 -10
16 0 8 5 12 10 9 6 -3 10 -10 10 -16z m10 -45 c0 -8 -4 -12 -10 -9 -5 3 -10
10 -10 16 0 5 5 9 10 9 6 0 10 -7 10 -16z m-74 -48 c16 4 25 0 33 -14 15 -28
14 -42 -4 -42 -17 0 -20 -16 -4 -26 6 -3 9 -15 6 -25 -3 -11 -1 -19 4 -19 6 0
7 -6 1 -16 -7 -12 7 -52 49 -145 33 -70 65 -151 71 -180 11 -49 11 -52 -11
-70 -27 -22 -74 -25 -88 -6 -8 10 -32 150 -59 340 -3 26 -8 47 -11 47 -3 0
-18 -8 -34 -17 -43 -25 -57 -7 -39 49 8 24 21 48 28 54 12 8 12 15 3 33 -12
22 -37 20 -25 -2 3 -7 -3 -2 -13 9 -11 12 -29 25 -41 28 -26 9 -28 21 -6 30
28 11 52 6 58 -11 6 -14 9 -13 24 8 l17 24 9 -27 c8 -22 14 -26 32 -22z m14
34 c0 -5 -4 -10 -10 -10 -5 0 -10 5 -10 10 0 6 5 10 10 10 6 0 10 -4 10 -10z
m140 -100 c0 -5 -4 -10 -10 -10 -5 0 -10 5 -10 10 0 6 5 10 10 10 6 0 10 -4
10 -10z m-245 -20 c3 -5 -1 -10 -9 -10 -9 0 -16 5 -16 10 0 6 4 10 9 10 6 0
13 -4 16 -10z m233 -90 c-1 -28 -11 -39 -21 -22 -5 8 9 52 17 52 3 0 4 -13 4
-30z m-248 -25 c0 -8 -4 -15 -10 -15 -5 0 -10 7 -10 15 0 8 5 15 10 15 6 0 10
-7 10 -15z m50 -31 c0 -8 -4 -12 -10 -9 -5 3 -10 10 -10 16 0 5 5 9 10 9 6 0
10 -7 10 -16z m-10 -55 c0 -5 -4 -9 -10 -9 -5 0 -10 7 -10 16 0 8 5 12 10 9 6
-3 10 -10 10 -16z m11 -242 c-1 -12 -15 -9 -19 4 -3 6 1 10 8 8 6 -3 11 -8 11
-12z m174 -56 c3 -5 1 -12 -5 -16 -5 -3 -10 1 -10 9 0 18 6 21 15 7z m-45 -71
c0 -5 -8 -10 -17 -10 -15 0 -16 2 -3 10 19 12 20 12 20 0z m310 -74 c0 -2 -7
-9 -15 -16 -13 -11 -14 -10 -9 4 5 14 24 23 24 12z m-390 -32 c0 -8 -5 -12
-10 -9 -6 4 -8 11 -5 16 9 14 15 11 15 -7z"/>
<path d="M1251 1624 c-23 -29 -27 -44 -12 -44 10 0 44 61 37 67 -2 2 -13 -8
-25 -23z"/>
<path d="M1296 1622 c-3 -6 -1 -14 5 -17 15 -10 25 3 12 16 -7 7 -13 7 -17 1z"/>
</g>
</svg>
